<svg width="40" height="36" viewBox="0 0 40 36" fill="none" xmlns="http://www.w3.org/2000/svg">
<rect width="40" height="36" fill="#090909"/>
<path d="M23.3334 14.475V12.675C24.25 12.325 25.1875 12.0625 26.1459 11.8875C27.1042 11.7125 28.1111 11.625 29.1667 11.625C29.8889 11.625 30.5972 11.675 31.2917 11.775C31.9861 11.875 32.6667 12 33.3334 12.15V13.8C32.6667 13.575 31.9931 13.4063 31.3125 13.2938C30.632 13.1813 29.9167 13.125 29.1667 13.125C28.1111 13.125 27.0972 13.2438 26.125 13.4813C25.1528 13.7188 24.2222 14.05 23.3334 14.475ZM23.3334 22.725V20.8875C24.25 20.5375 25.1875 20.2813 26.1459 20.1188C27.1042 19.9563 28.1111 19.875 29.1667 19.875C29.8889 19.875 30.5972 19.925 31.2917 20.025C31.9861 20.125 32.6667 20.25 33.3334 20.4V22.05C32.6667 21.825 31.9931 21.6562 31.3125 21.5438C30.632 21.4313 29.9167 21.375 29.1667 21.375C28.1111 21.375 27.0972 21.4875 26.125 21.7125C25.1528 21.9375 24.2222 22.275 23.3334 22.725ZM23.3334 18.6V16.8C24.25 16.45 25.1875 16.1875 26.1459 16.0125C27.1042 15.8375 28.1111 15.75 29.1667 15.75C29.8889 15.75 30.5972 15.8 31.2917 15.9C31.9861 16 32.6667 16.125 33.3334 16.275V17.925C32.6667 17.7 31.9931 17.5312 31.3125 17.4188C30.632 17.3063 29.9167 17.25 29.1667 17.25C28.1111 17.25 27.0972 17.3688 26.125 17.6063C25.1528 17.8438 24.2222 18.175 23.3334 18.6ZM10.3334 24.75C11.8334 24.75 13.2847 24.9062 14.6875 25.2188C16.0903 25.5312 17.4722 26 18.8334 26.625V10.6125C17.5834 9.8625 16.2292 9.28125 14.7709 8.86875C13.3125 8.45625 11.8334 8.25 10.3334 8.25C9.2778 8.25 8.24308 8.36875 7.22919 8.60625C6.2153 8.84375 5.19446 9.1375 4.16669 9.4875V25.7625C5.0278 25.4125 6.00696 25.1562 7.10419 24.9938C8.20141 24.8313 9.2778 24.75 10.3334 24.75ZM21.3334 26.625C22.7222 26 24.0834 25.5312 25.4167 25.2188C26.75 24.9062 28.1667 24.75 29.6667 24.75C30.7222 24.75 31.8125 24.825 32.9375 24.975C34.0625 25.125 35.0278 25.325 35.8334 25.575V9.4875C34.8889 9.0625 33.8889 8.75 32.8334 8.55C31.7778 8.35 30.7222 8.25 29.6667 8.25C28.1667 8.25 26.7153 8.45625 25.3125 8.86875C23.9097 9.28125 22.5834 9.8625 21.3334 10.6125V26.625ZM20.0834 30C18.6667 29.05 17.125 28.3188 15.4584 27.8063C13.7917 27.2938 12.0834 27.0375 10.3334 27.0375C8.88891 27.0375 7.32641 27.2938 5.64585 27.8063C3.9653 28.3188 2.63891 28.85 1.66669 29.4V7.95C2.83335 7.35 4.19446 6.875 5.75002 6.525C7.30558 6.175 8.83335 6 10.3334 6C12.0834 6 13.7847 6.2125 15.4375 6.6375C17.0903 7.0625 18.6389 7.7125 20.0834 8.5875C21.5 7.7125 23.0209 7.0625 24.6459 6.6375C26.2709 6.2125 27.9445 6 29.6667 6C31.1667 6 32.6945 6.18125 34.25 6.54375C35.8056 6.90625 37.1667 7.375 38.3334 7.95V29.4C37.3889 28.825 36.0695 28.2875 34.375 27.7875C32.6806 27.2875 31.1111 27.0375 29.6667 27.0375C27.9167 27.0375 26.2361 27.3 24.625 27.825C23.0139 28.35 21.5 29.075 20.0834 30Z" fill="#FF7A00"/>
<path d="M4 9.5L7.5 8.5L11.5 8L15.5 9L19 10.5V27L4 26V9.5Z" fill="#FF7A00"/>
</svg>
