<svg width="157" height="50" viewBox="0 0 157 50" fill="none" xmlns="http://www.w3.org/2000/svg">
<path d="M25.872 5.736L25.104 11.784H16.896V39H9.024V11.784H0.432V5.736H25.872ZM43.8259 12.696C46.0339 12.696 47.7619 13.368 49.0099 14.712C50.2579 16.056 50.8819 17.944 50.8819 20.376V39H43.2979V21.672C43.2979 20.392 43.0899 19.512 42.6739 19.032C42.2579 18.52 41.6659 18.264 40.8979 18.264C39.3619 18.264 37.8899 19.352 36.4819 21.528V39H28.8979V3.384L36.4819 2.616V16.248C37.5379 15.064 38.6579 14.184 39.8419 13.608C41.0259 13 42.3539 12.696 43.8259 12.696ZM64.185 13.512V39H56.601V13.512H64.185ZM60.345 0.0719976C61.657 0.0719976 62.729 0.487998 63.561 1.32C64.425 2.12 64.857 3.144 64.857 4.392C64.857 5.64 64.425 6.68 63.561 7.512C62.729 8.312 61.657 8.712 60.345 8.712C59.033 8.712 57.961 8.312 57.129 7.512C56.297 6.68 55.881 5.64 55.881 4.392C55.881 3.144 56.297 2.12 57.129 1.32C57.961 0.487998 59.033 0.0719976 60.345 0.0719976ZM90.4039 31.608C90.4039 32.568 90.5319 33.272 90.7879 33.72C91.0759 34.168 91.5239 34.504 92.1319 34.728L90.5479 39.672C88.9799 39.544 87.6999 39.208 86.7079 38.664C85.7159 38.088 84.9479 37.192 84.4039 35.976C82.7399 38.536 80.1799 39.816 76.7239 39.816C74.1959 39.816 72.1799 39.08 70.6759 37.608C69.1719 36.136 68.4199 34.216 68.4199 31.848C68.4199 29.064 69.4439 26.936 71.4919 25.464C73.5399 23.992 76.4999 23.256 80.3719 23.256H82.9639V22.152C82.9639 20.648 82.6439 19.624 82.0039 19.08C81.3639 18.504 80.2439 18.216 78.6439 18.216C77.8119 18.216 76.8039 18.344 75.6199 18.6C74.4359 18.824 73.2199 19.144 71.9719 19.56L70.2439 14.568C71.8439 13.96 73.4759 13.496 75.1399 13.176C76.8359 12.856 78.4039 12.696 79.8439 12.696C83.4919 12.696 86.1639 13.448 87.8599 14.952C89.5559 16.456 90.4039 18.712 90.4039 21.72V31.608ZM78.9319 34.392C80.6599 34.392 82.0039 33.576 82.9639 31.944V27.432H81.0919C79.3639 27.432 78.0679 27.736 77.2039 28.344C76.3719 28.952 75.9559 29.896 75.9559 31.176C75.9559 32.2 76.2119 33 76.7239 33.576C77.2679 34.12 78.0039 34.392 78.9319 34.392ZM119.448 15C117.784 15.672 115.336 16.008 112.104 16.008C113.768 16.712 114.984 17.576 115.752 18.6C116.52 19.624 116.904 20.952 116.904 22.584C116.904 24.216 116.472 25.688 115.608 27C114.744 28.28 113.496 29.288 111.864 30.024C110.264 30.76 108.376 31.128 106.2 31.128C105.176 31.128 104.2 31.032 103.272 30.84C103.016 30.968 102.808 31.176 102.648 31.464C102.52 31.72 102.456 31.992 102.456 32.28C102.456 32.76 102.632 33.144 102.984 33.432C103.368 33.688 104.12 33.816 105.24 33.816H109.08C111.032 33.816 112.744 34.136 114.216 34.776C115.688 35.416 116.824 36.296 117.624 37.416C118.424 38.536 118.824 39.8 118.824 41.208C118.824 43.864 117.672 45.928 115.368 47.4C113.096 48.904 109.8 49.656 105.48 49.656C102.376 49.656 99.928 49.32 98.136 48.648C96.344 48.008 95.08 47.096 94.344 45.912C93.64 44.728 93.288 43.24 93.288 41.448H100.104C100.104 42.216 100.248 42.824 100.536 43.272C100.856 43.72 101.416 44.056 102.216 44.28C103.016 44.504 104.168 44.616 105.672 44.616C107.752 44.616 109.192 44.36 109.992 43.848C110.792 43.368 111.192 42.664 111.192 41.736C111.192 40.968 110.888 40.36 110.28 39.912C109.672 39.464 108.76 39.24 107.544 39.24H103.848C101.224 39.24 99.256 38.776 97.944 37.848C96.664 36.888 96.024 35.672 96.024 34.2C96.024 33.272 96.296 32.376 96.84 31.512C97.384 30.616 98.12 29.88 99.048 29.304C97.448 28.44 96.28 27.432 95.544 26.28C94.84 25.096 94.488 23.672 94.488 22.008C94.488 19.16 95.512 16.904 97.56 15.24C99.608 13.544 102.312 12.696 105.672 12.696C108.232 12.76 110.392 12.504 112.152 11.928C113.944 11.352 115.784 10.504 117.672 9.384L119.448 15ZM105.864 17.688C104.68 17.688 103.736 18.072 103.032 18.84C102.36 19.576 102.024 20.6 102.024 21.912C102.024 23.288 102.36 24.36 103.032 25.128C103.736 25.864 104.68 26.232 105.864 26.232C107.112 26.232 108.056 25.864 108.696 25.128C109.368 24.392 109.704 23.288 109.704 21.816C109.704 19.064 108.424 17.688 105.864 17.688ZM132.375 12.696C136.279 12.696 139.335 13.896 141.543 16.296C143.751 18.664 144.855 21.992 144.855 26.28C144.855 29 144.343 31.384 143.319 33.432C142.327 35.448 140.887 37.016 138.999 38.136C137.143 39.256 134.935 39.816 132.375 39.816C128.503 39.816 125.447 38.632 123.207 36.264C120.999 33.864 119.895 30.52 119.895 26.232C119.895 23.512 120.391 21.144 121.383 19.128C122.407 17.08 123.847 15.496 125.703 14.376C127.591 13.256 129.815 12.696 132.375 12.696ZM132.375 18.264C130.839 18.264 129.687 18.92 128.919 20.232C128.151 21.512 127.767 23.512 127.767 26.232C127.767 29.016 128.135 31.048 128.871 32.328C129.639 33.608 130.807 34.248 132.375 34.248C133.911 34.248 135.063 33.608 135.831 32.328C136.599 31.016 136.983 29 136.983 26.28C136.983 23.496 136.599 21.464 135.831 20.184C135.095 18.904 133.943 18.264 132.375 18.264Z" fill="#141414"/>
<path d="M152.151 31.128C153.335 31.128 154.343 31.56 155.175 32.424C156.039 33.256 156.471 34.264 156.471 35.448C156.471 36.664 156.039 37.704 155.175 38.568C154.343 39.4 153.335 39.816 152.151 39.816C150.935 39.816 149.895 39.4 149.031 38.568C148.199 37.704 147.783 36.664 147.783 35.448C147.783 34.264 148.199 33.256 149.031 32.424C149.895 31.56 150.935 31.128 152.151 31.128Z" fill="#FF7A00"/>
</svg>
